<?xml version="1.0" encoding="utf-8"?>
<!-- Generator: Adobe Illustrator 24.1.2, SVG Export Plug-In . SVG Version: 6.00 Build 0)  -->
<svg version="1.1" id="a87032b8-5b37-4b7e-a4d9-4dbfbe394641"
	 xmlns="http://www.w3.org/2000/svg" xmlns:xlink="http://www.w3.org/1999/xlink" x="0px" y="0px" viewBox="0 0 138.1 396.1"
	 style="enable-background:new 0 0 138.1 396.1;" xml:space="preserve">
<style type="text/css">
	.st0{fill:#FFB8B8;}
	.st1{fill:#2F2E41;}
	.st2{fill:#FFCA0B;}
</style>
<path class="st0" d="M14.4,139.2c0.5,0.2,1,0.5,1.4,0.8l44.9-19.1l1.6-11.8l17.9-0.1L79.2,136L20,151.6c-0.1,0.4-0.3,0.8-0.4,1.2
	c-2.4,5.1-8.5,7.3-13.6,4.9c-5.1-2.4-7.3-8.5-4.9-13.6C3.3,139.1,9.3,136.9,14.4,139.2z"/>
<polygon class="st0" points="86.7,384.7 74.5,384.7 68.6,337.4 86.7,337.4 "/>
<path class="st1" d="M65.7,381.2h23.6l0,0v14.9l0,0H50.8l0,0l0,0C50.8,387.9,57.5,381.2,65.7,381.2z"/>
<polygon class="st0" points="134.4,381.3 122.2,382.5 111.8,336 129.8,334.2 "/>
<path class="st1" d="M113.1,379.8l23.5-2.3l0,0l1.5,14.8l0,0l-38.3,3.8l0,0l0,0C99,387.9,105,380.6,113.1,379.8z"/>
<circle class="st0" cx="90.1" cy="34.3" r="24.6"/>
<path class="st1" d="M71.7,375.2c-2.2,0-4-1.6-4.4-3.7C61,336.2,40.2,221.1,39.7,217.9c0-0.1,0-0.1,0-0.2v-8.6
	c0-0.3,0.1-0.6,0.3-0.9l2.7-3.8c0.3-0.4,0.7-0.6,1.1-0.6c15.6-0.7,66.8-2.9,69.3,0.2l0,0c2.5,3.1,1.6,12.5,1.4,14.4l0,0.2l23,147
	c0.4,2.4-1.3,4.7-3.7,5.1l-14.4,2.4c-2.2,0.4-4.3-1-5-3.1c-4.4-14.2-19.3-61.9-24.5-80.4c-0.1-0.3-0.3-0.4-0.6-0.3
	c-0.2,0.1-0.4,0.3-0.4,0.5c0.3,17.6,0.9,62.5,1.1,78l0,1.7c0,2.3-1.8,4.3-4.1,4.5l-13.8,1.3C72,375.2,71.9,375.2,71.7,375.2z"/>
<path id="ae7af94f-88d7-4204-9f07-e3651de85c05" class="st2" d="M74.6,68.5c-4.3,2.5-6.9,7.2-8.3,12c-2.7,8.8-4.4,17.9-4.9,27.2
	l-1.6,27.6l-19.3,73.2c16.7,14.1,26.3,10.9,48.8-0.6s25,3.9,25,3.9l4.5-62.3l6.4-68c-1.4-1.7-3.1-3.3-4.9-4.7
	c-12-9.3-27.7-12.7-42.4-9L74.6,68.5z"/>
<path class="st0" d="M68.3,153.9c0.5,0.2,1,0.4,1.5,0.7l44.3-22.2l0.7-12l18.3-1.3l1,27.4l-59.3,19.6c-1.3,5.6-7,9.2-12.6,7.8
	c-5.6-1.3-9.2-7-7.8-12.6c1.3-5.6,7-9.2,12.6-7.8C67.5,153.7,67.9,153.8,68.3,153.9L68.3,153.9z"/>
<path id="a6768b0e-63d0-4b31-8462-9b2e0b00f0fd" class="st2" d="M124.9,81.7c10.9,3.9,12.8,45.6,12.8,45.6
	c-12.8-7.1-28.2,4.5-28.2,4.5s-3.2-10.9-7.1-25c-2.4-8.1-0.4-16.8,5.1-23.1C107.6,83.6,114,77.8,124.9,81.7z"/>
<path id="bfd7963f-0cf8-4885-9d3a-2c00bccda2e3" class="st1" d="M112.2,40.8c-3.1-2.4-7.2,2-7.2,2l-2.4-22c0,0-15.3,1.8-25.1-0.6
	S66.1,29,66.1,29c-0.5-4.6-0.6-9.2-0.3-13.8c0.6-5.5,8.6-11,22.6-14.7s21.4,12.2,21.4,12.2C119.6,17.7,115.2,43.2,112.2,40.8z"/>
</svg>
